<?xml version="1.0" standalone="yes"?>
<svg xmlns="http://www.w3.org/2000/svg" width="225" height="225">
<path style="fill:#010101; stroke:none;" d="M0 0L0 225L225 225L225 0L0 0z"/>
<path style="fill:#fbeacf; stroke:none;" d="M103 24L104 25L103 24z"/>
<path style="fill:#f5be56; stroke:none;" d="M97.3333 25.6667L97.6667 26.3333L97.3333 25.6667z"/>
<path style="fill:#fda605; stroke:none;" d="M80 86L79 86L79 83L78 83L70 110L103 111L90.6559 145L73 197L74 197L155 84L145 89L148 84L121 84L150 25L115 25C110.559 25 103.476 23.6615 99.3935 25.6034C95.2347 27.5817 94.0887 36.0337 92.6914 40C87.9419 53.4811 78.4944 71.6715 80 86z"/>
<path style="fill:#f5be56; stroke:none;" d="M150 25L151 26L150 25M136.667 26.3333L137.333 26.6667L136.667 26.3333z"/>
<path style="fill:#fbeacf; stroke:none;" d="M150 26L151 27L150 26z"/>
<path style="fill:#f8d89b; stroke:none;" d="M96 27L97 28L96 27z"/>
<path style="fill:#f5be56; stroke:none;" d="M149 27L150 28L149 27M96 28L97 29L96 28z"/>
<path style="fill:#f8d89b; stroke:none;" d="M149 28L150 29L149 28z"/>
<path style="fill:#fbeacf; stroke:none;" d="M95 29L96 30L95 29z"/>
<path style="fill:#f5be56; stroke:none;" d="M148 29L149 30L148 29z"/>
<path style="fill:#f8d89b; stroke:none;" d="M95.3333 30.6667L95.6667 31.3333L95.3333 30.6667M148 30L149 31L148 30z"/>
<path style="fill:#f5be56; stroke:none;" d="M147 31L148 32L147 31z"/>
<path style="fill:#fbeacf; stroke:none;" d="M147 32L148 33L147 32M94 33L95 34L94 33z"/>
<path style="fill:#f5be56; stroke:none;" d="M146 33L147 34L146 33M94.3333 34.6667L94.6667 35.3333L94.3333 34.6667z"/>
<path style="fill:#fbeacf; stroke:none;" d="M146 34L147 35L146 34z"/>
<path style="fill:#f5be56; stroke:none;" d="M145 35L146 36L145 35z"/>
<path style="fill:#f8d89b; stroke:none;" d="M93 36L94 37L93 36z"/>
<path style="fill:#f5be56; stroke:none;" d="M93 37L94 38L93 37M144 37L145 38L144 37z"/>
<path style="fill:#f8d89b; stroke:none;" d="M92 39L93 40L92 39z"/>
<path style="fill:#f5be56; stroke:none;" d="M92 40L93 41L92 40z"/>
<path style="fill:#fbeacf; stroke:none;" d="M91 41L92 42L91 41z"/>
<path style="fill:#f5be56; stroke:none;" d="M142 41L143 42L142 41z"/>
<path style="fill:#f8d89b; stroke:none;" d="M91 42L92 43L91 42z"/>
<path style="fill:#f5be56; stroke:none;" d="M91 43L92 44L91 43M141 43L142 44L141 43z"/>
<path style="fill:#f8d89b; stroke:none;" d="M90 45L91 46L90 45z"/>
<path style="fill:#f5be56; stroke:none;" d="M140 45L141 46L140 45M90 46L91 47L90 46M139 46L140 47L139 46z"/>
<path style="fill:#f8d89b; stroke:none;" d="M139 47L140 48L139 47M89 48L90 49L89 48z"/>
<path style="fill:#f5be56; stroke:none;" d="M138 48L139 49L138 48M89.3333 49.6667L89.6667 50.3333L89.3333 49.6667z"/>
<path style="fill:#f8d89b; stroke:none;" d="M138 49L139 50L138 49z"/>
<path style="fill:#f5be56; stroke:none;" d="M137 50L138 51L137 50z"/>
<path style="fill:#f8d89b; stroke:none;" d="M88 51L89 52L88 51M137 51L138 52L137 51z"/>
<path style="fill:#f5be56; stroke:none;" d="M88 52L89 53L88 52z"/>
<path style="fill:#f8d89b; stroke:none;" d="M136 53L137 54L136 53M87.3333 54.6667L87.6667 55.3333L87.3333 54.6667M86 57L87 58L86 57M134 57L135 58L134 57z"/>
<path style="fill:#f5be56; stroke:none;" d="M86.3333 58.6667L86.6667 59.3333L86.3333 58.6667z"/>
<path style="fill:#f8d89b; stroke:none;" d="M133 59L134 60L133 59M85 60L86 61L85 60z"/>
<path style="fill:#f5be56; stroke:none;" d="M85 61L86 62L85 61z"/>
<path style="fill:#f8d89b; stroke:none;" d="M132 61L133 62L132 61z"/>
<path style="fill:#f5be56; stroke:none;" d="M131 62L132 63L131 62z"/>
<path style="fill:#f8d89b; stroke:none;" d="M84 63L85 64L84 63z"/>
<path style="fill:#fbeacf; stroke:none;" d="M131 63L132 64L131 63z"/>
<path style="fill:#f5be56; stroke:none;" d="M84 64L85 65L84 64M130 64L131 65L130 64z"/>
<path style="fill:#f8d89b; stroke:none;" d="M130 65L131 66L130 65M83 66L84 67L83 66z"/>
<path style="fill:#f5be56; stroke:none;" d="M129 66L130 67L129 66M83 67L84 68L83 67z"/>
<path style="fill:#f8d89b; stroke:none;" d="M129 67L130 68L129 67z"/>
<path style="fill:#f5be56; stroke:none;" d="M128 68L129 69L128 68z"/>
<path style="fill:#f8d89b; stroke:none;" d="M82 69L83 70L82 69M128 69L129 70L128 69z"/>
<path style="fill:#f5be56; stroke:none;" d="M82 70L83 71L82 70M127 70L126 73L127 73L127 70M87 71L87 74L88 74L87 71z"/>
<path style="fill:#f8d89b; stroke:none;" d="M127 71L128 72L127 71M81 72L82 73L81 72z"/>
<path style="fill:#f5be56; stroke:none;" d="M81 73L82 74L81 73z"/>
<path style="fill:#f8d89b; stroke:none;" d="M126 73L127 74L126 73z"/>
<path style="fill:#f5be56; stroke:none;" d="M85 74L85 76L87 76L85 74M125 74L126 75L125 74z"/>
<path style="fill:#f8d89b; stroke:none;" d="M80 75L81 76L80 75M125 75L126 76L125 75z"/>
<path style="fill:#f5be56; stroke:none;" d="M80 76L81 77L80 76M124 76L125 77L124 76z"/>
<path style="fill:#fbeacf; stroke:none;" d="M79 77L80 78L79 77z"/>
<path style="fill:#f5be56; stroke:none;" d="M81 77L84 80L81 77z"/>
<path style="fill:#fbeacf; stroke:none;" d="M124 77L125 78L124 77z"/>
<path style="fill:#f8d89b; stroke:none;" d="M79.3333 78.6667L79.6667 79.3333L79.3333 78.6667z"/>
<path style="fill:#f5be56; stroke:none;" d="M123 78L124 79L123 78M85 79L86 80L85 79M122 80L123 81L122 80z"/>
<path style="fill:#f8d89b; stroke:none;" d="M78 81L79 82L78 81z"/>
<path style="fill:#f5be56; stroke:none;" d="M121 81L122 82L121 81M78 82L79 86L80 86L78 82z"/>
<path style="fill:#f8d89b; stroke:none;" d="M121 82L121 83L140 84L140 83L121 82z"/>
<path style="fill:#fbeacf; stroke:none;" d="M77 83L78 84L77 83z"/>
<path style="fill:#f5be56; stroke:none;" d="M121 83L122 84L121 83z"/>
<path style="fill:#fbeacf; stroke:none;" d="M140 83L141 84L140 83z"/>
<path style="fill:#f8d89b; stroke:none;" d="M141 83L141 84L144 84L141 83z"/>
<path style="fill:#fbeacf; stroke:none;" d="M144 83L145 84L144 83z"/>
<path style="fill:#f8d89b; stroke:none;" d="M145 83L145 84L148 84L145 83z"/>
<path style="fill:#fbeacf; stroke:none;" d="M148 83L148 84L152 84L148 83z"/>
<path style="fill:#f8d89b; stroke:none;" d="M152 83L152 84L156 85L152 83M77 84L78 85L77 84z"/>
<path style="fill:#f5be56; stroke:none;" d="M145 89L150 84L145 89M77 85L78 86L77 85M154 85L153 87L154 85z"/>
<path style="fill:#fbeacf; stroke:none;" d="M155 85L156 86L155 85M76 86L77 87L76 86z"/>
<path style="fill:#f8d89b; stroke:none;" d="M154 86L155 87L154 86M76 87L77 88L76 87M153 87L154 88L153 87z"/>
<path style="fill:#f5be56; stroke:none;" d="M76 88L77 89L76 88z"/>
<path style="fill:#f8d89b; stroke:none;" d="M152 88L153 89L152 88z"/>
<path style="fill:#fbeacf; stroke:none;" d="M75 89L76 90L75 89z"/>
<path style="fill:#f5be56; stroke:none;" d="M151 89L152 90L151 89z"/>
<path style="fill:#fbeacf; stroke:none;" d="M152 89L153 90L152 89z"/>
<path style="fill:#f8d89b; stroke:none;" d="M75 90L76 91L75 90M151 90L152 91L151 90z"/>
<path style="fill:#f5be56; stroke:none;" d="M75 91L76 92L75 91M150 91L151 92L150 91z"/>
<path style="fill:#fbeacf; stroke:none;" d="M74 92L75 93L74 92z"/>
<path style="fill:#f5be56; stroke:none;" d="M149 92L148 94L149 92z"/>
<path style="fill:#f8d89b; stroke:none;" d="M74 93L75 94L74 93z"/>
<path style="fill:#fbeacf; stroke:none;" d="M149 93L150 94L149 93z"/>
<path style="fill:#f5be56; stroke:none;" d="M74 94L75 95L74 94z"/>
<path style="fill:#f8d89b; stroke:none;" d="M148 94L149 95L148 94z"/>
<path style="fill:#fbeacf; stroke:none;" d="M73 95L74 96L73 95z"/>
<path style="fill:#f5be56; stroke:none;" d="M147 95L148 96L147 95z"/>
<path style="fill:#f8d89b; stroke:none;" d="M73 96L74 97L73 96z"/>
<path style="fill:#f5be56; stroke:none;" d="M146 96L145 98L146 96M73.3333 97.6667L73.6667 98.3333L73.3333 97.6667z"/>
<path style="fill:#f8d89b; stroke:none;" d="M146 97L147 98L146 97M145 98L146 99L145 98M72 99L73 100L72 99M144 99L145 100L144 99z"/>
<path style="fill:#f5be56; stroke:none;" d="M72 100L73 101L72 100z"/>
<path style="fill:#fbeacf; stroke:none;" d="M71 101L72 102L71 101z"/>
<path style="fill:#f8d89b; stroke:none;" d="M143 101L144 102L143 101M71.3333 102.667L71.6667 103.333L71.3333 102.667z"/>
<path style="fill:#f5be56; stroke:none;" d="M142 102L143 103L142 102M141 103L140 105L141 103z"/>
<path style="fill:#fbeacf; stroke:none;" d="M141 104L142 105L141 104z"/>
<path style="fill:#f8d89b; stroke:none;" d="M70 105L71 106L70 105M140 105L141 106L140 105z"/>
<path style="fill:#f5be56; stroke:none;" d="M70 106L71 107L70 106M139 106L140 107L139 106M138 107L139 108L138 107z"/>
<path style="fill:#f8d89b; stroke:none;" d="M69 108L70 109L69 108M138 108L139 109L138 108z"/>
<path style="fill:#f5be56; stroke:none;" d="M69 109C73.6945 114.372 93.9365 111 101 111L101 110L69 109z"/>
<path style="fill:#f8d89b; stroke:none;" d="M137 109L138 110L137 109z"/>
<path style="fill:#f5be56; stroke:none;" d="M136 110L137 111L136 110z"/>
<path style="fill:#f8d89b; stroke:none;" d="M101 111L102 112L101 111z"/>
<path style="fill:#f5be56; stroke:none;" d="M102 111L103 112L102 111M101.333 112.667L101.667 113.333L101.333 112.667z"/>
<path style="fill:#fbeacf; stroke:none;" d="M135 112L136 113L135 112z"/>
<path style="fill:#f8d89b; stroke:none;" d="M134 113L135 114L134 113z"/>
<path style="fill:#f5be56; stroke:none;" d="M133 114L134 115L133 114M100 115L101 116L100 115z"/>
<path style="fill:#f8d89b; stroke:none;" d="M132 116L133 117L132 116M99 117L100 118L99 117z"/>
<path style="fill:#f5be56; stroke:none;" d="M131 117L132 118L131 117M99 118L100 119L99 118z"/>
<path style="fill:#fbeacf; stroke:none;" d="M130 119L131 120L130 119z"/>
<path style="fill:#f8d89b; stroke:none;" d="M98 120L99 121L98 120M129 120L130 121L129 120z"/>
<path style="fill:#f5be56; stroke:none;" d="M98.3333 121.667L98.6667 122.333L98.3333 121.667M128 121L129 122L128 121z"/>
<path style="fill:#fbeacf; stroke:none;" d="M97 123L98 124L97 123z"/>
<path style="fill:#f8d89b; stroke:none;" d="M127 123L128 124L127 123z"/>
<path style="fill:#f5be56; stroke:none;" d="M97 124L98 125L97 124M126 124L127 125L126 124z"/>
<path style="fill:#fbeacf; stroke:none;" d="M96 125L97 126L96 125z"/>
<path style="fill:#f5be56; stroke:none;" d="M125 125L126 126L125 125z"/>
<path style="fill:#f8d89b; stroke:none;" d="M96.3333 126.667L96.6667 127.333L96.3333 126.667z"/>
<path style="fill:#f5be56; stroke:none;" d="M124 126L125 127L124 126M99 127L100 128L99 127z"/>
<path style="fill:#f8d89b; stroke:none;" d="M124 127L125 128L124 127z"/>
<path style="fill:#fbeacf; stroke:none;" d="M95 128L96 129L95 128z"/>
<path style="fill:#f8d89b; stroke:none;" d="M123 128L124 129L123 128M95 129L96 130L95 129z"/>
<path style="fill:#f5be56; stroke:none;" d="M122 129L123 130L122 129M95 130L96 131L95 130M121 130L122 131L121 130z"/>
<path style="fill:#fbeacf; stroke:none;" d="M94 131L95 132L94 131z"/>
<path style="fill:#f8d89b; stroke:none;" d="M121 131L122 132L121 131M94 132L95 133L94 132z"/>
<path style="fill:#f5be56; stroke:none;" d="M120 132L121 133L120 132M94 133L95 134L94 133M119 133L120 134L119 133z"/>
<path style="fill:#fbeacf; stroke:none;" d="M93 134L94 135L93 134z"/>
<path style="fill:#f5be56; stroke:none;" d="M118 134L119 135L118 134z"/>
<path style="fill:#f8d89b; stroke:none;" d="M93 135L94 136L93 135z"/>
<path style="fill:#f5be56; stroke:none;" d="M93 136L94 137L93 136M117 136L118 137L117 136z"/>
<path style="fill:#fbeacf; stroke:none;" d="M92 137L93 138L92 137z"/>
<path style="fill:#f8d89b; stroke:none;" d="M92 138L93 139L92 138z"/>
<path style="fill:#f5be56; stroke:none;" d="M92 139L93 140L92 139z"/>
<path style="fill:#f8d89b; stroke:none;" d="M115 139L116 140L115 139z"/>
<path style="fill:#fbeacf; stroke:none;" d="M91 140L92 141L91 140z"/>
<path style="fill:#f8d89b; stroke:none;" d="M91 141L92 142L91 141z"/>
<path style="fill:#f5be56; stroke:none;" d="M91 142L92 143L91 142z"/>
<path style="fill:#f8d89b; stroke:none;" d="M113 142L114 143L113 142z"/>
<path style="fill:#fbeacf; stroke:none;" d="M90 143L91 144L90 143z"/>
<path style="fill:#f5be56; stroke:none;" d="M112 143L113 144L112 143z"/>
<path style="fill:#f8d89b; stroke:none;" d="M90 144L91 145L90 144z"/>
<path style="fill:#f5be56; stroke:none;" d="M90 145L91 146L90 145z"/>
<path style="fill:#f8d89b; stroke:none;" d="M111 145L112 146L111 145z"/>
<path style="fill:#fbeacf; stroke:none;" d="M89 146L90 147L89 146z"/>
<path style="fill:#f5be56; stroke:none;" d="M110 146L111 147L110 146z"/>
<path style="fill:#f8d89b; stroke:none;" d="M89 147L90 148L89 147z"/>
<path style="fill:#f5be56; stroke:none;" d="M109 147L110 148L109 147M89 148L90 149L89 148z"/>
<path style="fill:#f8d89b; stroke:none;" d="M88 149L89 150L88 149M108 149L109 150L108 149z"/>
<path style="fill:#f5be56; stroke:none;" d="M88 150L89 151L88 150M107 150L108 151L107 150M106 151L107 152L106 151z"/>
<path style="fill:#fbeacf; stroke:none;" d="M87 152L88 153L87 152z"/>
<path style="fill:#f5be56; stroke:none;" d="M105 152L106 153L105 152z"/>
<path style="fill:#f8d89b; stroke:none;" d="M87 153L88 154L87 153M105 153L106 154L105 153z"/>
<path style="fill:#f5be56; stroke:none;" d="M87 154L88 155L87 154M104 154L105 155L104 154z"/>
<path style="fill:#f8d89b; stroke:none;" d="M86 155L87 156L86 155z"/>
<path style="fill:#f5be56; stroke:none;" d="M103 155L102 157L103 155M86.3333 156.667L86.6667 157.333L86.3333 156.667z"/>
<path style="fill:#f8d89b; stroke:none;" d="M103 156L104 157L103 156M102 157L103 158L102 157z"/>
<path style="fill:#fbeacf; stroke:none;" d="M85 158L86 159L85 158z"/>
<path style="fill:#f5be56; stroke:none;" d="M101 158L102 159L101 158z"/>
<path style="fill:#f8d89b; stroke:none;" d="M85 159L86 160L85 159z"/>
<path style="fill:#fbeacf; stroke:none;" d="M100 160L101 161L100 160M84 161L85 162L84 161z"/>
<path style="fill:#f5be56; stroke:none;" d="M99 161L100 162L99 161z"/>
<path style="fill:#f8d89b; stroke:none;" d="M84 162L85 163L84 162z"/>
<path style="fill:#f5be56; stroke:none;" d="M98 162L99 163L98 162M84 163L85 164L84 163z"/>
<path style="fill:#f8d89b; stroke:none;" d="M98 163L99 164L98 163M83 164L84 165L83 164M97 164L98 165L97 164z"/>
<path style="fill:#f5be56; stroke:none;" d="M83.3333 165.667L83.6667 166.333L83.3333 165.667M96 165L94 169L95 169L96 165z"/>
<path style="fill:#fbeacf; stroke:none;" d="M96 166L97 167L96 166M82 167L83 168L82 167z"/>
<path style="fill:#f8d89b; stroke:none;" d="M95 167L96 168L95 167z"/>
<path style="fill:#f5be56; stroke:none;" d="M82 168L83 169L82 168z"/>
<path style="fill:#fbeacf; stroke:none;" d="M81 169L82 170L81 169z"/>
<path style="fill:#f5be56; stroke:none;" d="M93 169L94 170L93 169z"/>
<path style="fill:#f8d89b; stroke:none;" d="M81 170L82 171L81 170z"/>
<path style="fill:#fbeacf; stroke:none;" d="M93 170L94 171L93 170z"/>
<path style="fill:#f5be56; stroke:none;" d="M81 171L82 172L81 171z"/>
<path style="fill:#f8d89b; stroke:none;" d="M92 171L93 172L92 171z"/>
<path style="fill:#f5be56; stroke:none;" d="M91 172L92 173L91 172z"/>
<path style="fill:#f8d89b; stroke:none;" d="M80 173L81 174L80 173z"/>
<path style="fill:#f5be56; stroke:none;" d="M90 173L91 174L90 173M80 174L81 175L80 174z"/>
<path style="fill:#fbeacf; stroke:none;" d="M90 174L91 175L90 174z"/>
<path style="fill:#f8d89b; stroke:none;" d="M89 175L90 176L89 175z"/>
<path style="fill:#f5be56; stroke:none;" d="M79 176L79 179L80 179L79 176z"/>
<path style="fill:#f8d89b; stroke:none;" d="M88 176L89 177L88 176z"/>
<path style="fill:#f5be56; stroke:none;" d="M87 177L88 178L87 177z"/>
<path style="fill:#f8d89b; stroke:none;" d="M87 178L88 179L87 178M78 179L79 180L78 179M86 179L87 180L86 179z"/>
<path style="fill:#f5be56; stroke:none;" d="M78 180L79 181L78 180M85 180L86 181L85 180z"/>
<path style="fill:#fbeacf; stroke:none;" d="M77 181L78 182L77 181M85 181L86 182L85 181z"/>
<path style="fill:#f8d89b; stroke:none;" d="M77 182L78 183L77 182z"/>
<path style="fill:#f5be56; stroke:none;" d="M83 182L81 186L83 182z"/>
<path style="fill:#f8d89b; stroke:none;" d="M84 182L85 183L84 182z"/>
<path style="fill:#f5be56; stroke:none;" d="M77 183L78 184L77 183z"/>
<path style="fill:#fbeacf; stroke:none;" d="M76 184L77 185L76 184M83 184L84 185L83 184z"/>
<path style="fill:#f8d89b; stroke:none;" d="M76 185L77 186L76 185M82 185L83 186L82 185z"/>
<path style="fill:#f5be56; stroke:none;" d="M76 186L77 187L76 186z"/>
<path style="fill:#f8d89b; stroke:none;" d="M81 186L82 187L81 186z"/>
<path style="fill:#fbeacf; stroke:none;" d="M75 187L76 188L75 187z"/>
<path style="fill:#f5be56; stroke:none;" d="M80 187L79 189L80 187M75 188L76 189L75 188z"/>
<path style="fill:#fbeacf; stroke:none;" d="M80 188L81 189L80 188z"/>
<path style="fill:#f8d89b; stroke:none;" d="M79 189L80 190L79 189z"/>
<path style="fill:#fbeacf; stroke:none;" d="M74 190L75 191L74 190z"/>
<path style="fill:#f8d89b; stroke:none;" d="M78 190L79 191L78 190M74 191L75 192L74 191z"/>
<path style="fill:#f5be56; stroke:none;" d="M77 191L78 192L77 191M74 192L75 193L74 192z"/>
<path style="fill:#fbeacf; stroke:none;" d="M77 192L78 193L77 192M73 193L74 194L73 193z"/>
<path style="fill:#f8d89b; stroke:none;" d="M76 193L77 194L76 193z"/>
<path style="fill:#f5be56; stroke:none;" d="M73 194L74 195L73 194M75 194L74 196L75 194z"/>
<path style="fill:#fbeacf; stroke:none;" d="M72.3333 195.667L72.6667 196.333L72.3333 195.667M75 195L76 196L75 195z"/>
<path style="fill:#f8d89b; stroke:none;" d="M74 196L75 197L74 196z"/>
<path style="fill:#f5be56; stroke:none;" d="M72 197L73 198L72 197z"/>
<path style="fill:#f8d89b; stroke:none;" d="M73 197L74 198L73 197M72 198L73 199L72 198z"/>
</svg>
