<?xml version="1.0" encoding="UTF-8"?>
<svg version="1.1" viewBox="0 0 2048 1989" width="1280" height="1280" xmlns="http://www.w3.org/2000/svg">
<path transform="translate(0)" d="m0 0h2048v1989h-2048z" fill="#FDFEFD"/>
<path transform="translate(1048,265)" d="m0 0 4 2 4 11 28 110 23 92 6 23 5 21 4 16 3 11 2 10 4 16 5 19 8 33 15 60 9 35 3 11 4 12 5-1 22-11 21-10 19-10 33-16 32-16 17-9 17-8 16-8 27-14 21-11 5-2h5l2 7-2 6-13 29-8 16-12 25-7 12-11 23-8 16-6 13-4 9-5 10-5 9-29 58-4 10v4l42 10 64 16 63 15 63 16 70 17 51 12 64 16 58 14 3 3v7l-36 10-60 16-31 8-53 14-19 5-29 8-47 12-41 11-38 10-78 21-40 10-7 1 5 13 10 19 8 16 8 17 5 9 6 11 8 15 14 28 8 17 10 19 8 14 8 17 10 19 7 15 1 5-1 3-4 1-1 3-4-1-12-7-14-7-15-8-38-19-15-8-16-8-15-8-20-10-12-7-23-11-19-10-16-8-15-7-4 8-10 37-7 29-22 88-4 15-2 7-4 16-5 19-3 13-13 52-5 19-14 55-18 71-11 44-3 9-7 1-2-1-4-16-7-26-5-21-6-25-3-13-7-30-17-67-49-196-7-27-4-17-10-40v-4l-10 3-23 11-19 10-13 6h-2v2l-11 4v2l-8 3-3 3-8 3h-3v2l-60 30-19 9-17 9-20 11-19 9-5 2-3-5 1-8 14-29 8-16 9-16 8-17 10-19 16-32 8-17 8-15 8-16 9-17 11-23 2-5v-4l-23-5-42-11-68-18-55-14-50-13-29-8-105-27-38-10-18-5-43-11-8-4-2-6 10-4 35-9 73-18 289-71 37-9 35-9 2-1-1-6-8-16-5-12-9-17-11-23-52-104-15-29-13-26 1-6 9-8 58 29 17 9 38 19 19 10 17 9 16 8 23 11 9 5 23 12 9 4 5-1 6-22 4-18 4-13 3-14 4-15 51-204 8-31 6-25 20-82 6-21 5-21 5-15z" fill="#020102"/>
<path transform="translate(1047,310)" d="m0 0h2l5 13 11 42 4 16 6 21 4 16 12 45 17 69 5 19 11 43 6 23 9 35 13 52 7 26 4 15 1 5v12l-4 9-10 22-11 23-12 25-10 21-8 16-7 16-12 24-8 18-8 16-10 19-7 16-7 11-3 4 3 6v680l-1 5-4-2-7-23-6-20-5-22-4-14-7-30-4-14-10-42-2-5-5-21-12-48-11-45-4-15-8-33-4-15-6-23-11-41-5-22-3-13v-8l4-11 16-32 11-21 8-17 8-18 13-26 8-15 16-32 22-46 2-6-4 2-2 4-25 25-7 8-53 53h-2l-2 4-15 13-40 40-3 4h-2l-2 4-40 40h-2l-2 4-4 2-2 4-19 19-10 8-79 79-8 7-8 8-5 2-1-2 12-25 85-170 9-21 20-11 4-3 16-8 7-4 7-3 19-10 8-3 2-3 10-3v-2l9-3h3l1-4 6-2h5v-3l23-12 19-9 19-10 23-12 24-12 3-1v-3l-540 1h-111l-22-1-8-1-1-2 30-7 55-14 125-33 35-9 29-8 19-5 35-9 34-9 51-14 32-8 7-2 23 10 17 9 18 8 37 18 48 24 28 13 19 10 17 8 17 9 8 4-6-7-47-47-7-8-5-5v-2l-4-2-2-4-4-2-16-16v-2l-3-1v-2h-2l-7-8-41-41-1-4-4-2-82-82-7-8-25-25-7-8-58-58-6-8 1-2 22 11 33 15 21 10 26 13 33 16 14 7 23 11 24 11 19 9 6 5 8 16 12 23 8 17 7 13 9 16 9 19 10 19 8 16 11 20 8 16 16 33 10 18 1 5h2v-550l1-126z" fill="#999D95"/>
<path transform="translate(1567 1e3)" d="m0 0h108l72 1-3 2-35 10-52 14-55 14-101 27-35 9-129 34-42 11-8-2-24-11-14-7-26-12-16-8-34-16-35-17-32-15-23-11-16-8-13-7-1-4 2-1h86l65-1 301-1z" fill="#FDFEFC"/>
<path transform="translate(801,884)" d="m0 0 5 1 18 8 16 8 21 10 16 8 31 15 14 7 26 12 15 8 16 8 17 8 14 7 23 11 7 4v2l-4 1h-191l-32 1-289 1-28 1h-111l-22-1-8-1-1-2 30-7 55-14 125-33 35-9 29-8 19-5 35-9 34-9 51-14 32-8z" fill="#FCFDFC"/>
<path transform="translate(1051,327)" d="m0 0h1l3 11 4 13 15 63 11 42 15 59 8 29 11 45 5 20 10 37 27 108v7l-12 25-11 23-12 25-11 23-16 34-11 22-12 27-9 19-7 14-5 12-4 7-2-1 1-533v-118z" fill="#FEFFFE"/>
<path transform="translate(1043,1011)" d="m0 0 2 3 1 649-1 10h-2l-7-24-18-73-16-64-17-67-14-57-14-56-8-30-13-51-2-8v-7l10-19 11-23 8-15 7-15 12-26 9-19 10-19 8-17 10-19 9-19 9-21 5-8z" fill="#FEFFFE"/>
<path transform="translate(1398,649)" d="m0 0 1 3-9 23-5 10-6 13-7 16-7 15-5 12-7 15-9 20-12 26-5 12-7 14-8 20-9 20-3 5h-2v2l-21 10-13 8-8 4-19 10-21 11-12 7-12 6-11 6-16 9-21 11-16 9-25 13-36 19-5 3h-2l1-4 14-15 3-4h2l2-4 4-5 5-4 5-6h2v-2l7-6h2l3-6h2l2-4 11-13 18-18 7-8 41-41 7-8 25-25 4-5 8-7 5-5 4-5 5-5 3-1v-2l5-4 5-5 7-9 26-26 9-11 22-22 7-8 61-61z" fill="#FDFEFD"/>
<path transform="translate(1061,1020)" d="m0 0 6 3 4 5 8 7 7 7 8 7 7 6v2l4 2 144 144 4 3v2l4 2 13 13 8 7 13 13v2l4 2 9 10 22 22 7 6 7 8 23 23v2l4 2 9 10 12 12 3 4-5 1-16-8-23-11-19-10-66-33-15-8-48-24-21-11-4-5-8-16-8-15-10-19-8-16-9-17-4-7-8-13-16-32-9-17-10-19-9-16-14-28z" fill="#FDFEFD"/>
<path transform="translate(710,657)" d="m0 0 6 2 16 8 28 13 15 8 16 8 31 15 28 13 17 8 15 8 23 11 13 6 7 9 33 66 5 8 10 21 10 19 11 22 8 14 15 29 8 17 11 18 3 9-4-2-54-54-7-8-46-46-7-8-172-172-7-8-32-32z" fill="#FEFFFE"/>
<path transform="translate(1034,1010)" d="m0 0 3 1-3 3h-2l-2 4-12 12-8 7-57 57-8 7-86 86-8 7-98 98-4 5-5 5-3 1-2 4-9 9h-2l-2 4-3 3h-2v2l-8 7-3 2 1-4 5-12 11-22 8-17 8-15 66-132 3-7 7-4 36-18 20-11 32-16 17-9 8-4 19-10 26-13 14-8 26-13z" fill="#FEFFFE"/>
<path transform="translate(1046,263)" d="m0 0h8l4 9 7 25 17 69 17 67 16 64 20 81 18 71 16 64 8 31 6-2 19-10 94-47 23-11 70-35 20-9 6-1 5 4v7l-5 12-14 29-11 23-8 15-11 23-18 36-6 13-12 25-10 21-19 38-1 3 20 3 48 11 38 10 49 13 36 8 46 11 31 8 15 4 16 4 6 2v1l-9-1-54-13-67-17-100-24-60-15-17-4-1-5 4-10 29-58 5-9 8-16 4-9 10-22 10-19 8-16 10-19 11-23 13-29 2-6-1-6-7 1-16 8-25 13-48 24-21 10-19 10-28 14-21 10-15 8-23 11-14 7-4-1-5-14-5-21-16-64-5-19-8-33-6-24-4-14-3-14-4-16-5-19-4-17-16-63-4-17-6-24-18-71-11-43-3-7-5-1-3 13-3 9-5 21-7 26-12 49-5 21-15 60-6 23-4 17-43 172-3 11-4 17-4 15-6 24-2 4-5 1-9-4-16-8-15-8-32-16-54-28-32-16-23-12-48-24-8 7-1 6 19 38 9 17 24 48 9 19 10 19 19 38 9 19 4 8 7 16 4 7-1 5h-2l-5-10-7-15-16-33-43-86-10-21-10-19-24-48v-8l9-7 3-2 7 1 23 12 19 10 78 39 19 10 16 8 19 10 16 8 27 14 9 4 1-9 8-34 64-256 9-35 8-32 16-63 9-37 4-13z" fill="#999D95"/>
<path transform="translate(759,1124)" d="m0 0 9 1 16 4 10 2 1 5-7 16-10 19-9 17-8 17-16 32-8 15-8 16-11 23-9 17-10 18-13 28-3 7 1 7 1 2 5-2 19-9 22-12 15-8 23-11 54-27h2v-2l12-5 9-6 9-4h3v-2l23-11 19-10 20-9h5l9 36 5 19 5 21 11 43 17 69 12 48 5 19 5 21 16 63 8 32 4 21 3 10 8 32 5 21 6 21v6h9l4-17 10-40 17-67 16-63 8-30 7-31 3-10 4-17 4-14 2-9 2-7 8-31 30-120 6-21 4-6 3 2h-2l-4 16-14 58-18 71-8 29-14 57-13 52-5 18-17 67-7 28-10 38-8 32-4 14-4 3h-8l-5-3-4-13-9-39-29-116-20-81-7-27-5-21-11-43-19-77-15-60-5 1-15 8-88 44-17 9-11 6-23 11-19 10-15 8-32 16-8 3-5-1-2-4-3-1v-6l8-16 8-15 8-16 9-16 8-16 10-21 8-15 26-52 11-23 17-34v-3l-32-8z" fill="#999D95"/>
<path transform="translate(115,930)" d="m0 0h23l4 2v9l7 27 12 36 4 11 3 10 1 2h4l4-8 14-44v-10l-6-14-8-13-7-4-4-3 3-1h23l11 1v9l2 11 7 22 8 24 10 29 2 3h2l4-7 9-26 5-10 11-33 3-17-7-2-1-3 7-1h10l8 1-1 3-6 2-5 13-7 21-4 8-6 16-10 25-7 19-7 18-4 2-5-12-21-54v-2l-6-1-21 64-4 9h-2v-2h-2l-13-37-6-16-17-50-9-19-5-6z" fill="#020102"/>
<path transform="translate(986,88)" d="m0 0h20l13 14 7 8 12 13 7 9 8 10 9 10 10 12 8 10 9 11 4 2 2-3 1-7 1-73-3-9-6-4-1-2h20l-2 5-2 1-1 127-6-5-6-9-10-11-9-11-12-12-7-9-9-11-11-13-10-11-6-8-6-1v90l3 5v3h-15l3-9 2-10v-89l-3-7-10-6-13-5-3-3 2-1z" fill="#020102"/>
<path transform="translate(1818,936)" d="m0 0h88l3 2 1 4v23h-3l-3-11-4-6-6-4-7-1h-41l-3 1v53l44 1 3-1 6-15h1v14l1 19-3-1-6-8h-46v45l2 9h49l8-2 6-4 8-11 2-2-2 9-5 12-2 4-2 1h-85l-2-1 1-3 4-4 2-8v-98l-2-2-3-8-5-2-2-4z" fill="#020102"/>
<path transform="translate(1039,1773)" d="m0 0h13l13 3 8 3 7-1 7-3v36l-3-1-4-11-7-10-9-7-10-3h-12l-9 3-6 7-3 8v11l5 7 13 9 18 10 12 6 9 6 8 6 4 6 3 9-1 16-4 8-4 5-10 7-11 4-5 1h-20l-19-5-9-1v-26l2-2 5 12 4 6 8 6 9 3 6 1h13l11-3 8-4 3-6v-12l-4-6-8-8-13-8-15-8-17-11-10-10-3-7-1-5v-9l3-12 6-9 9-8z" fill="#020102"/>
<path transform="translate(1398,649)" d="m0 0 1 3-9 23-5 10-6 13-7 16-7 15-5 12-7 15-9 20-12 26-5 12-7 14-8 20-9 20-3 5h-2v2l-21 10-13 8-8 4-19 10-21 11-12 7-12 6-11 6-16 9-21 11-16 9-25 13-19 10-10 5-2-1 8-5 21-12 23-12 20-11 8-4 22-12 25-14 28-15 18-10 27-14 22-12 13-26 12-26 13-29 18-38 12-26 13-29 7-16 8-16 3-7-4 5-8 7-31 31-7 8-8 7-7 8-10 10-1 2h-2l-2 4-49 49-7 8-15 15-7 8-21 21-7 8-11 11-7 8-25 25-2 3h-2l-2 4-25 25-7 8-41 41-7 8-9 9h-2l-2 4-2-1 11-12 4-5h2l2-4 4-5 5-4 5-6h2v-2l7-6h2l3-6h2l2-4 11-13 18-18 7-8 41-41 7-8 25-25 4-5 8-7 5-5 4-5 5-5 3-1v-2l5-4 5-5 7-9 26-26 9-11 22-22 7-8 61-61z" fill="#999D95"/>
<path transform="translate(1061,1020)" d="m0 0 6 3-1 3 8 13 8 15 10 19 17 32 14 25 24 47 12 22 10 18 9 19 1 3 4 2 12 7 23 11 28 14 19 10 56 28 15 8 21 10 15 8 11 5-1-1-6-7-8-7-3-3v-2l-4-2-111-111-8-7-95-95-7-8-69-69h3l12 12 8 7 7 6v2l4 2 144 144 4 3v2l4 2 13 13 8 7 13 13v2l4 2 9 10 22 22 7 6 7 8 23 23v2l4 2 9 10 12 12 3 4-5 1-16-8-23-11-19-10-66-33-15-8-48-24-21-11-4-5-8-16-8-15-10-19-8-16-9-17-4-7-8-13-16-32-9-17-10-19-9-16-14-28z" fill="#999D95"/>
<path transform="translate(1107,89)" d="m0 0 2 1-1 3-1 118-1 14-5-1-8-6-7-8-11-13-8-10-9-11-12-13-9-11-6-7-10-13-5-6-2-1v85l2 6 8 2v3h-33v-4l7-4 1-3v-101l-4-5-12-8 3-1 13 7 3 3 2 7v88l-2 10-3 7-1 2h15l-4-8v-91l7 1 11 13 7 8 13 15 16 20 11 11 9 11 9 10 7 10 2 2 1-126 4-4z" fill="#999D95"/>
<path transform="translate(113,930)" d="m0 0h2l7 10 9 20 12 36 8 21 14 40v3h2v2l3-3 12-36 11-34 4-1 4 4 7 18 10 26 8 20h3l10-26 10-27 6-15 5-12 5-11 9-27 3-4 5-1 1-2h-8v-1h11l3 2-4 3-5 3-6 13-12 33-13 32-10 26-7 18-6 3h-3l-5-14-13-34-7-20-2-1-3 9-13 40-6 16-4 5-5-1-5-4-9-28-7-20-8-21-4-13-5-15-6-14-6-11z" fill="#999D95"/>
<path transform="translate(1814,936)" d="m0 0 4 1-2 1 1 3 5 1 3 5 2 5 1 1v98l-2 8-6 7h87l2-1 5-13 3-9-8 11-5 4-4 2-6 1h-49l-2-3-1-7v-45l1-1h5l-2 1v17l1 37 46-1 10-5 7-10 7-8 3-4h3v10l-7 16-6 9-7 2h-87l-5-2 5-4 6-3 1-14v-62l-1-40-16-4 1-3z" fill="#999D95"/>
<path transform="translate(1427,1097)" d="m0 0h5l-3 2-35 9-65 18-22 5h-2l3 7 21 41 9 17 9 16 14 29 9 19 30 57 21 42 1 5-8 8h-5l4-4 4-1-1-8-8-17-10-19-8-16-8-15-10-19-10-21-8-16-8-15-7-14-8-14-10-21-10-19-5-10-4-10v-3l15-4 24-6 45-12z" fill="#999D95"/>
<path transform="translate(1567 1e3)" d="m0 0h108l72 1-3 2h-218l-49 1h-336v-1l65-1 301-1z" fill="#999D95"/>
<path transform="translate(1e3 87)" d="m0 0 7 1 7 7 9 11 9 10 9 11 11 12 10 13 9 11 12 13 5 6 2 1-1-87-4-2-3-3 1-3h20v1l-18 1 7 5 3 9-1 73-2 9-3 2-7-6-8-10-11-14-11-12-13-16-8-10-22-24-6-7z" fill="#999D95"/>
<path transform="translate(1055 1e3)" d="m0 0h38v1h-36l2 4 18 8 14 7 16 7 17 9 26 12 27 13 28 13 50 24 16 8 23 11 1 2-8-2-24-11-14-7-26-12-16-8-34-16-35-17-32-15-23-11-16-8-13-7-1-4z" fill="#999D95"/>
<path transform="translate(192,930)" d="m0 0h18l3 2-7 2v9l6 20 12 36 9 26 12-32 7-18 6-19 5-19-9-2-5-2v-2l4-1h12v1h-7l3 3 5 2v7l-4 17-6 18-4 10-6 13-8 24-4 5-4-2-7-19-9-26-4-13-7-22-1-11 1-6h-11z" fill="#999D95"/>
<path transform="translate(138,930)" d="m0 0h10l1 2-4 4 1 9 9 31 12 36 3 11 2-1 17-51-3-9-5-10-8-13-6-5-3-2v-2h5l-1 2 8 4 6 8 8 16 2 5v10l-12 38-4 10-3 5-5-1-3-7-4-13-12-37-7-24-1-5v-9z" fill="#999D95"/>
<path transform="translate(1042,1778)" d="m0 0h12v1l-11 1-8 4-6 8-2 6v8l3 5 7 6 16 10 24 13 10 7 8 9 5 12v13l-6 12-7 7-12 6-9 1 16-8 5-4 6-9 1-3 1-16-4-11-5-6-6-4-11-7-17-8-18-11-7-6-4-6v-11l4-9 6-7z" fill="#999D95"/>
<path transform="translate(1183,1254)" d="m0 0 6 2 16 8 19 10 21 10 12 7 18 9 19 10 19 9 9 5 11 6 16 8 15 8 17 8 12 7 12 6 4 4-6-2-54-27-12-7-16-8-19-10-21-10-19-10-26-14-17-8-19-10-15-8z" fill="#999D95"/>
<path transform="translate(1033,1773)" d="m0 0h6v1l-10 3-9 8-6 10-2 10v9l3 10 7 8 7 6 20 12 12 6 11 8 9 9 2 4v12l-4 7-5 3-3-1 6-7 2-5v-7l-6-8-10-9-11-7-20-11-11-7-6-5-6-10-2-7v-14l3-8 4-6 7-8z" fill="#999D95"/>
<path transform="translate(1008,1866)" d="m0 0 7 1 3 3 4 13 6 9 8 6 5 2-4 1-10-5-1-3-3-1-6-10-3-6-1 26h9v1l-7 1-5 3-2-2z" fill="#999D95"/>
<path transform="translate(1843 1e3)" d="m0 0h5l-2 1v17l1 37 49-1-2 2h-49l-2-3-1-7v-45z" fill="#999D95"/>
<path transform="translate(1085,1774)" d="m0 0 5 1-1 38-1 4-4-1-8-16-7-10-9-8-6-2 4-1 9 4 9 8 7 12 2 7 2 1-1-35-3 2-3-1z" fill="#999D95"/>
<path transform="translate(1920,1032)" d="m0 0h3v10l-7 16-6 9h-3l3-5 7-18-4 5-7 8-6 3-4-1 8-6 8-12z" fill="#989C94"/>
<path transform="translate(1894,980)" d="m0 0h4l2 6v17l-1 17-1 3-4-1-4-11-2-5h-6v-1h7l6 7 3 3-2-19v-11l-4 8-2 5-3-1 6-16z" fill="#999D95"/>
<path transform="translate(1843,943)" d="m0 0 3 1v54l-4-1v-53z" fill="#999D95"/>
<path transform="translate(1906,936)" d="m0 0h5l1 1 1 28-3 3-5-2-4-11-8-10-1-2 6 2 6 7 4 11 1 2v-23l-1-4z" fill="#999D95"/>
<path transform="translate(1774,993)" d="m0 0 8 1 4 4-1 5-4 1-1-9-6-1z" fill="#999D95"/>
<path transform="translate(312,999)" d="m0 0 2 1 2 6 11 4v1l-9-1-5-3-4-5z" fill="#999D95"/>
<path transform="translate(361,999)" d="m0 0h6l-4 3v1h-8l-1-2z" fill="#999D95"/>
</svg>
